<svg xmlns="http://www.w3.org/2000/svg" viewBox="0 0 393.82 67.92"><defs><style>.cls-1{fill:gray;}.cls-2{fill:#d1137b;}</style></defs><g id="Layer_2" data-name="Layer 2"><g id="Layer_1-2" data-name="Layer 1"><path class="cls-1" d="M22.83,48A21.59,21.59,0,0,1,6.44,41.23Q0,34.42,0,24T6.26,6.86A20.71,20.71,0,0,1,22.27,0q10,0,16,6.49t5.94,18.18l-.09.92H8.65a14.69,14.69,0,0,0,4.42,10.67,14.13,14.13,0,0,0,10.12,4.05q8.1,0,12.7-8.1l7.55,3.68A22.37,22.37,0,0,1,35,44.82,23.25,23.25,0,0,1,22.83,48ZM9.3,18.59H35.16a11.26,11.26,0,0,0-3.82-7.78q-3.45-3.08-9.25-3.08a12.25,12.25,0,0,0-8.24,2.95A14,14,0,0,0,9.3,18.59Z"/><path class="cls-1" d="M86.88,34.05q0,5.89-5.15,9.94t-13,4a20.59,20.59,0,0,1-12-3.54,19.58,19.58,0,0,1-7.37-9.34L57,31.94a14,14,0,0,0,4.83,6.3,11.77,11.77,0,0,0,7,2.26,12.34,12.34,0,0,0,6.77-1.75q2.72-1.76,2.71-4.14c0-2.89-2.21-5-6.63-6.36l-7.73-1.93Q50.72,23,50.71,13.62a11.71,11.71,0,0,1,5-9.89Q60.74,0,68.57,0A20.89,20.89,0,0,1,79.38,2.85a15.57,15.57,0,0,1,6.77,7.64L78.6,13.62a9.51,9.51,0,0,0-4.19-4.46,13,13,0,0,0-6.49-1.61A10.87,10.87,0,0,0,62,9.2q-2.62,1.67-2.63,4.05,0,3.87,7.27,5.53l6.81,1.74Q86.88,23.84,86.88,34.05Z"/><path class="cls-1" d="M115.32,48a22.28,22.28,0,0,1-16.66-6.81A24.24,24.24,0,0,1,92.13,24q0-10.39,6.53-17.21A22.28,22.28,0,0,1,115.32,0a21.19,21.19,0,0,1,12.06,3.45A21.1,21.1,0,0,1,135.11,13l-7.73,3.22q-3.6-8.47-12.61-8.47a13.13,13.13,0,0,0-10,4.69A16.91,16.91,0,0,0,100.59,24a16.91,16.91,0,0,0,4.14,11.6,13.1,13.1,0,0,0,10,4.69q9.28,0,13.07-8.47l7.54,3.23a20.18,20.18,0,0,1-7.77,9.52A22,22,0,0,1,115.32,48Z"/><path class="cls-1" d="M213.8,67.92a25.36,25.36,0,0,1-7.09-1,23,23,0,0,1-6-2.72A19.28,19.28,0,0,1,196,60.1a17.63,17.63,0,0,1-2.94-5.34l8-3.31a12.68,12.68,0,0,0,4.78,6.35,13.46,13.46,0,0,0,7.92,2.39q6.9,0,10.77-4.14t3.86-11.41V40.31h-.37A16.56,16.56,0,0,1,221.57,46,19.4,19.4,0,0,1,212.69,48a19.92,19.92,0,0,1-15.18-6.9A24.92,24.92,0,0,1,191.25,24a24.57,24.57,0,0,1,6.26-17,19.79,19.79,0,0,1,15.18-7,19.4,19.4,0,0,1,8.88,2.07,16.64,16.64,0,0,1,6.49,5.66h.37V1.47h8.1V44.64q0,10.86-6.17,17T213.8,67.92Zm.27-27.61a13,13,0,0,0,10.22-4.51q4.14-4.5,4.14-11.78a16.83,16.83,0,0,0-4.14-11.69,13.06,13.06,0,0,0-10.22-4.6,13.21,13.21,0,0,0-10.21,4.6A16.83,16.83,0,0,0,199.72,24q0,7.18,4.14,11.69A13.18,13.18,0,0,0,214.07,40.31Z"/><path class="cls-1" d="M255.31,46.57h-8.47V1.47h8.1V8.84h.37a12.11,12.11,0,0,1,5.29-6.12A14.68,14.68,0,0,1,268.47.18a15.82,15.82,0,0,1,6.26,1.11l-2.58,8.19a14,14,0,0,0-5-.64,10.94,10.94,0,0,0-8.33,3.86,13,13,0,0,0-3.54,9Z"/><path class="cls-1" d="M295.53,0q9.39,0,14.82,5t5.42,13.76V46.57h-8.09V40.31h-.37q-5.25,7.74-14,7.73a18.15,18.15,0,0,1-12.47-4.42,14.07,14.07,0,0,1-5-11,13.42,13.42,0,0,1,5.29-11.14q5.29-4.14,14.13-4.14,7.54,0,12.43,2.76V18.13a9.66,9.66,0,0,0-3.5-7.5A12,12,0,0,0,296,7.55a13,13,0,0,0-11.23,6L277.3,8.84Q283.47,0,295.53,0Zm-11,32.76a6.79,6.79,0,0,0,2.81,5.53A10.35,10.35,0,0,0,294,40.5a13.51,13.51,0,0,0,9.53-4,12.41,12.41,0,0,0,4.19-9.3q-4-3.12-11.05-3.13A14.3,14.3,0,0,0,288,26.6,7.38,7.38,0,0,0,284.57,32.76Z"/><path class="cls-1" d="M333.81,46.57h-8.46V1.47h8.1V7.73h.36a15,15,0,0,1,5.94-5.52,16.59,16.59,0,0,1,16.71.09A13.6,13.6,0,0,1,362,8.65Q367.59,0,377.53,0q7.83,0,12.06,4.79t4.23,13.62V46.57h-8.46V19.7q0-6.36-2.31-9.16t-7.73-2.81a10.12,10.12,0,0,0-8.19,4.14,15.15,15.15,0,0,0-3.31,9.76V46.57h-8.47V19.7q0-6.36-2.3-9.16c-1.54-1.87-4.11-2.81-7.73-2.81a10.12,10.12,0,0,0-8.19,4.14,15.16,15.16,0,0,0-3.32,9.76Z"/><path class="cls-2" d="M162.9,0a24,24,0,1,0,24,24A24,24,0,0,0,162.9,0Zm.34,42V34.41c0-5.38,1.74-7.73,1.74-7.73l-2.3,1.7-2.3-1.7s1.75,2.35,1.75,7.73V42c-3-1.71-16.81-10.1-16.81-18.69,0-8,4.43-10.57,7.37-11.35a10.06,10.06,0,0,1,8.16,1.24A5.91,5.91,0,0,1,162.68,15a6,6,0,0,1,1.85-1.77A10.06,10.06,0,0,1,172.69,12c2.94.78,7.36,3.32,7.36,11.35C180.05,31.9,166.22,40.29,163.24,42Z"/></g></g></svg>