<svg xmlns="http://www.w3.org/2000/svg" viewBox="0 0 170.34 149.77"><defs><style>.cls-1{fill:#d1137b;}</style></defs><g id="Layer_2" data-name="Layer 2"><g id="Layer_1-2" data-name="Layer 1"><path class="cls-1" d="M134.23,1.79c-13.6-3.67-28.28-1.74-40,6.13-4,2.71-7.29,5.78-9,8.79-1.76-3-5-6.08-9-8.79-11.73-7.87-26.41-9.8-40-6.13C21.7,5.68,0,18.25,0,58.08c0,41.08,63,81.26,80.64,91.69a352.21,352.21,0,0,0,1.81-36.59c0-26.72-8.56-38.37-8.56-38.37l11.28,8.44,11.28-8.44s-8.56,11.65-8.56,38.37a352.21,352.21,0,0,0,1.81,36.59c17.62-10.43,80.64-50.61,80.64-91.69C170.34,18.25,148.64,5.68,134.23,1.79Z"/></g></g></svg>